<?xml version="1.0" encoding="UTF-8"?>
<svg width="66.042mm" height="18.794mm" version="1.1" viewBox="0 0 66.042 18.794" xmlns="http://www.w3.org/2000/svg">
<g transform="translate(-64.497 -93.323)">
<g transform="matrix(.26458 0 0 .26458 55.208 83.277)" color="#ffffff" font-family="'Segoe UI', Arial, sans-serif" font-weight="300" letter-spacing="1px" stroke="#fff">
<g stroke-linecap="square" stroke-width="2">
<line x1="210" x2="210" y1="60" y2="100"/>
<line x1="120" x2="120" y1="60" y2="100"/>
<line x1="120" x2="145" y1="100" y2="100"/>
<line x1="185" x2="210" y1="100" y2="100"/>
</g>
<rect x="145" y="92" width="40" height="16" fill-opacity="0" stroke-width="2"/>
<text x="165" y="83" dy="0.30000001em" font-size="11px" text-anchor="middle">10 Ω</text>
<g stroke-width="2">
<line x1="120" x2="145" y1="60" y2="60" stroke-linecap="square"/>
<line x1="185" x2="210" y1="60" y2="60" stroke-linecap="square"/>
<rect x="145" y="52" width="40" height="16" fill-opacity="0"/>
</g>
<text x="165" y="43" dy="0.30000001em" font-size="11px" text-anchor="middle">5 Ω</text>
<text x="278" y="80" dy="0.30000001em" font-size="12px">Y</text>
<line x1="210" x2="267" y1="80" y2="80" stroke-linecap="square" stroke-width="2"/>
<circle cx="270" cy="80" r="3" fill-opacity="0" stroke-width="2"/>
<text x="42" y="80" dy="0.30000001em" font-size="12px" text-anchor="end">X</text>
<g stroke-width="2">
<line x1="53" x2="120" y1="80" y2="80" stroke-linecap="square"/>
<circle cx="50" cy="80" r="3" fill-opacity="0"/>
<circle cx="210" cy="80" r="2"/>
<circle cx="120" cy="80" r="2"/>
</g>
</g>
</g>
</svg>
