<svg xmlns="http://www.w3.org/2000/svg" width="161.998" height="177.691" version="1.1" viewBox="0 0 42.862 47.014"><g><g><g stroke="#fff" color="#fff" font-family="'Segoe UI', Arial, sans-serif" font-weight="300" letter-spacing="1" transform="translate(-111.62 -117.77) translate(29.482 -28.726) matrix(.26458 0 0 .26458 74.461 139.8)"><g stroke-width="2"><line x1="120" x2="137" y1="190" y2="190" stroke-linecap="square"/><line x1="163" x2="180" y1="190" y2="190" stroke-linecap="square"/><circle cx="150" cy="190" r="12" fill-opacity="0"/></g><text x="150" y="190" dy=".3em" font-size="12" text-anchor="middle">V</text><g stroke-width="2"><line x1="40" x2="57" y1="190" y2="190" stroke-linecap="square"/><line x1="83" x2="100" y1="190" y2="190" stroke-linecap="square"/><circle cx="70" cy="190" r="12" fill-opacity="0"/></g><text x="70" y="190" dy=".3em" font-size="12" text-anchor="middle">V</text><g stroke-linecap="square" stroke-width="2"><line x1="180" x2="180" y1="150" y2="190"/><line x1="120" x2="120" y1="150" y2="190"/><line x1="100" x2="100" y1="150" y2="190"/><line x1="40" x2="40" y1="150" y2="190"/><line x1="30" x2="60" y1="50" y2="50"/><line x1="160" x2="190" y1="50" y2="50"/><line x1="190" x2="190" y1="50" y2="150"/><line x1="30" x2="30" y1="50" y2="150"/><line x1="110" x2="138" y1="150" y2="150"/><line x1="162" x2="190" y1="150" y2="150"/><line x1="142" x2="158" y1="142" y2="158"/><line x1="142" x2="158" y1="158" y2="142"/></g><circle cx="150" cy="150" r="12" fill-opacity="0" stroke-width="2"/><g stroke-linecap="square" stroke-width="2"><line x1="30" x2="58" y1="150" y2="150"/><line x1="82" x2="110" y1="150" y2="150"/><line x1="62" x2="78" y1="142" y2="158"/><line x1="62" x2="78" y1="158" y2="142"/></g><circle cx="70" cy="150" r="12" fill-opacity="0" stroke-width="2"/><g stroke-linecap="square" stroke-width="2"><line x1="60" x2="101" y1="50" y2="50"/><line x1="101" x2="101" y1="40" y2="60"/><line x1="107" x2="107" y1="45" y2="55"/><line x1="113" x2="113" y1="40" y2="60"/><line x1="119" x2="119" y1="45" y2="55"/><line x1="119" x2="160" y1="50" y2="50"/></g><text x="110" y="38" dy="-.3em" font-size="12" text-anchor="middle">+12V</text><g stroke-width="2"><circle cx="180" cy="150" r="2"/><circle cx="120" cy="150" r="2"/><circle cx="100" cy="150" r="2"/><circle cx="40" cy="150" r="2"/></g></g></g></g></svg>