<svg xmlns="http://www.w3.org/2000/svg" preserveAspectRatio="none" viewBox="0 0 1100 736.7">
  <path fill="#ff3c" d="M244 485a1384 1384 0 00-72-5 95 95 0 01-20-3l-6-1h-6l-1-2c-1-3-1-3-6-4a61 61 0 01-12-3c-2-1-2-2 1-4l8-4 6-4-6-2-6-1-8-1-9-1c-7-1-10-1-11-3l-3-3-3-2c-2 1-5-1-6-2-1-2 0-4 1-4l1-1h4l3-1h2l1-1h1l1 1 2-1h1c0-1-1-2-4-1l-4-1a91 91 0 00-7-1c-2 0-2-1-1-2h1l3-1h1 9l2-1h3 1l6-1h5c3 0 2-2-1-4l-3-3h3l3-1c2 1 2 0 3-1l1-4v-1l1-1 1-3h-1l-2-1c1 0 1 0 0 0l-3-1-6-2c-5-3-8-3-20-4l-11-2-13-2-6-1-5-2-7-2 3-2h14l14-1 8 1 8 1h7l3 1 2-1a249 249 0 0035-1l-1-1h-1l-1-1h-1c0 1 0 1 0 0h-1l-2-1v-1l3-2-3-3c0 1 0 0 0 0l-1-1h-1c1-1-1-2-1-1h-1s-2-2-3-1v-1h-1c0 2-1 1-1 0s0-1 0 0l-1 2h-1v-1c1-1 0-1-2-1h-3c1 0 0 0 0 0l-1-1h-1s-1 0 0 0v-2c1-1 2-2 4-1l1 1c-2 0-1 1 0 1s2 0 1-1l1-1-1-1 1-1h1c1 0 1 0 0 0l-1-1 1-2c1 0 0-3-1-2v-1l-1-1c-1 0-1 0 0 0v-1l1-1 1-1c-1 0 0 0 0 0v-1h-1c0 1 0 1 0 0l1-3 1-2-1-1c-1-1-1-1 1-1h1v-1l2-1 1-1v-1c1 0 0 0 0 0h-1l-2-1h-1l-1-1h-1v-1l-1-1c1 0 1 0 0 0h-1l1-1 1-1c0-1 0-2-1-1l-1-1v-2l-2-1 2-1 2 1h3l3-1h4l9-1h8v-4l-1-2-1-1v-1l-1-1c-2 0-3-1-3-2h-1l-1-1-1-1v-2 1l2 1h1v-1l-2-1 1-1v-1l1-1 1-1-1-1v1h-1-1v2c1 0 0 0 0 0l-1-2 1-1 1-2h2l1-1v2l2 1c2 0 3-1 1-1s-2 0 0-1h1l-1-1c-2 0-2-1-1-1h1v1l1-1 1-1-1-1h-1-1v-1l2-1v-2h1l1-1h1v1 1l1-3c-1-1 0-2 3-2h2l3-1h6l2-1c1 0 1-1 0 0l-1-2-2-2-1-1-1-1h1l1 1c1 0 1 0 0 0v-2h1c0 1 0 1 0 0 0-2-1-3-2-3h1l1-1h-1c0-1 0-2 2-3v-2h2v-3-3l-1-1h-1c1-1 2-2 1-3v1h-1v-1h3s0-1 0 0l1 1v-1-1h2l2-1h2l1-1 5-1 3-1 1-1h14l3-1v-2l-10-1-6-1-2-1h-2l-2-1 1-1v-1h11a169 169 0 0113-1l4-1 2-2c1-2 3-3 3-2h20l12 1a1963 1963 0 0170 4h14a181 181 0 0032-1l10-1a720 720 0 0034-1 692 692 0 0155 0h5l6 1 1-1a558 558 0 0061 1 231 231 0 0119 1h5l5-1h6l2 1h6l14-1a376 376 0 0026 0l11-1h14a369 369 0 0064-3l12 1 19 1a300 300 0 0136 2 1121 1121 0 0177 3 773 773 0 0081 5l7 1 9 1 4 1a103 103 0 0118 3l5 1 1 1h1l14 2 2 2 8 4 11 1 1 1h1l1 1 5 3 7 2c4 0 5 1 4 3l-4 2-2 1h-2l-7 2 8 3a1050 1050 0 0020 2c1 2-7 7-13 10l-4 2c-1 3 0 4 3 6l2 2 1 1c1 2 1 3-1 4l-4 3c-2 2-3 2-5 2l-4 2v1h-1l-1 2s0 1 0 0l2 2c-1 1 0 1 0 0l-1 1-4 1-3 1h-1-1c-1 1 0 3 3 5l3 2 3 2c4 2 5 5 1 5-2 1-3 3-3 5v1c-1 0-2 1-2 3l-4 2-3 1-3 3-2 1-4 2c-3 0-4 1-4 2 0 2 2 4 3 4l4 4-6 2h-6l-13 2-1 2v3l-1 8-3 1-3 1-1 1v1h-1-4c-2 1-1 3 2 3l5 2h-9c-9 0-10 1-11 5l-2 4-2 5-2 1-2 1-1 1h-1l-2 2c-4 2-4 4-2 5s2 1 1 3 1 3 7 4c5 2 7 3 5 4-1 1-8 0-20-2-5-1-7-1-8 1s-2 3-6 3c-3 0-6 1-6 3l5 2c2 0 5 1 4 2l-2 1h-1l-4 2c0 2-3 3-4 3l-7 1 4 3c0-1 0 0 0 0v3c1 1 0 2-4 2l-6 1a247 247 0 01-20 3l-6 1-8 1h-22a1139 1139 0 01-73-4 250 250 0 01-27 1 460 460 0 01-62 2 498 498 0 00-62 1 363 363 0 00-59 6 220 220 0 00-24 2 183 183 0 01-27 2h-11a244 244 0 01-27 1 309 309 0 01-39 0 202 202 0 01-25 1 710 710 0 01-52 1 177 177 0 00-16 1 98 98 0 00-15 0l-7 1a2477 2477 0 01-73-2zm-108-68l-1-1-4-1h-4a1478 1478 0 019 2zm13-29h-1v1l1-1zm-27-16v-1h-1l1 1zm7-17h-1l1 1v-1zm4-7v1s0 1 0 0v-1zm-4-3h-1l1 1v-1zm22-24h-1 1zm0-2l-2-3h1v-1l-2 1v1l-1 1 1 1h1l1 1 1-1zm-3-1v-1l1 1h-1zm9-11c0-1 0-1 0 0h-1c1 2 1 1 1 0zm-2 0c0-1 0-2-1-1v1h1zm17-18v-1h-1l1 1zM83 428v-1l1 1-1 1v-1zm22-43h1-1zm8 0c-1 0-1 0 0 0l2-1h1v1h-1-2zm-3-1h1v1l-1-1zm14-8l1 1h-1v-1zm1-9c1-1 1-1 0 0v1-1zm3-19l1-1c2 0 2 0 1 1h-2zm12-36h1v1l-1-1zm2-2h1l-1 1v-1zm9-6l1-1v1h-1zm20-29l-1-1 1 1c1 0 1 0 0 0z"/>
</svg>
