<svg xmlns="http://www.w3.org/2000/svg" xmlns:xlink="http://www.w3.org/1999/xlink" version="1" viewBox="0 0 675 400">
    <defs/>
    <defs>
        <linearGradient id="b">
            <stop offset="0"/>
            <stop offset=".234" stop-color="#000908"/>
            <stop offset=".436" stop-color="#fe1211"/>
            <stop offset=".499" stop-color="#ffbd08"/>
            <stop offset=".516" stop-color="#fbe339"/>
            <stop offset=".547" stop-color="#eef681"/>
            <stop offset=".611" stop-color="#c0f8ba"/>
            <stop offset=".726" stop-color="#c0f8ba"/>
            <stop offset=".77" stop-color="#9ffded"/>
            <stop offset=".93" stop-color="#65f0f7"/>
            <stop offset="1" stop-color="#68dbfd"/>
        </linearGradient>
        <linearGradient id="a">
            <stop offset="0"/>
            <stop offset=".34"/>
            <stop offset=".461" stop-color="red"/>
            <stop offset=".477" stop-color="#ff6100"/>
            <stop offset=".495" stop-color="#ffe000"/>
            <stop offset=".509" stop-color="#0f0"/>
            <stop offset=".529" stop-color="#007c9e"/>
            <stop offset=".554" stop-color="#000071"/>
            <stop offset=".571" stop-color="#830087"/>
            <stop offset=".586" stop-color="#ff37c3"/>
            <stop offset=".714"/>
            <stop offset="1"/>
        </linearGradient>
        <linearGradient id="l" x1="24" x2="551" y1="212.5" y2="212.5" gradientTransform="matrix(1.04445 0 0 1 -15.1 35.5)" gradientUnits="userSpaceOnUse" xlink:href="#a"/>
        <linearGradient id="c" x1="111.8" x2="648.3" y1="332.2" y2="332.2" gradientUnits="userSpaceOnUse" xlink:href="#b"/>
        <filter id="d" width="2.3" height="2.3" x="-.7" y="-.7">
            <feGaussianBlur stdDeviation="1.4"/>
        </filter>
        <filter id="f">
            <feGaussianBlur stdDeviation="2.1"/>
        </filter>
        <filter id="g">
            <feGaussianBlur stdDeviation=".7"/>
        </filter>
    </defs>
    <path fill="#f9f9f9" stroke="#000" stroke-miterlimit="2" d="M136.9 306.2a26 26 0 00-11.2 49.8c13 5.7 28 0 34.1-12.7h479a11 11 0 000-22h-479a26 26 0 00-23-15z"/>
    <path fill="url(#c)" stroke="#000" stroke-miterlimit="2" d="M136.8 308.2a23.9 23.9 0 0121.6 14.5l.3.6h480.1a9 9 0 110 18H158.6l-.3.6a24 24 0 11-21.5-33.7z"/>
    <path fill="gray" d="M310 10h40v15h-40zM185 10h40v15h-40z"/>
    <path d="M225 10h85v15h-85z"/>
    <path fill="none" stroke="red" stroke-miterlimit="2" stroke-width="2" d="M126.5 47.5a114 114 0 0113.2 6.3l2.6 1.4 2.7 1.6 2.6 1.6A195.5 195.5 0 01153 62l2.6 1.8a427.5 427.5 0 015.3 3.8l2.7 1.9 2.6 2a436.8 436.8 0 0013.2 9 70.4 70.4 0 008 3.9A30.2 30.2 0 00195 86a21.1 21.1 0 005.3-.4 19 19 0 005.3-2 27.2 27.2 0 005.3-3.8 43.1 43.1 0 005.3-5.3 84.7 84.7 0 007.9-10.7l2.6-4 2.7-4 2.6-4a159.7 159.7 0 015.3-7.4 46.6 46.6 0 015.3-5.6c.8-.7 1.7-1.3 2.6-1.7l2.6-.9a7 7 0 012.7 0c.9.3 1.7.7 2.6 1.2.9.5 1.8 1.3 2.7 2.1l2.6 3.2a49.3 49.3 0 015.3 9 181.5 181.5 0 015.3 11.5l2.6 5.8a170.9 170.9 0 005.3 10.4c.9 1.4 1.7 2.7 2.6 3.7.9 1 1.8 1.8 2.7 2.4.8.5 1.7.7 2.6.6a5 5 0 002.6-1.2c1-.7 1.8-1.7 2.7-3 .9-1.3 1.7-2.9 2.6-4.7a94.1 94.1 0 005.3-13.4l2.6-7.6a264.5 264.5 0 015.3-13.5c.9-1.8 1.8-3.3 2.7-4.4a5.6 5.6 0 012.6-2c.9-.3 1.8-.1 2.6.6 1 .7 1.8 1.9 2.7 3.5.9 1.6 1.7 3.6 2.6 6l2.7 8 2.6 9a387.2 387.2 0 005.3 16.4c.9 2.1 1.7 3.8 2.6 4.9.9 1 1.8 1.6 2.7 1.4.8-.2 1.7-1 2.6-2.5a33 33 0 002.6-6.2c.9-2.6 1.8-5.7 2.7-9l2.6-10.5 2.6-10.1c1-3.1 1.8-5.8 2.7-7.7.9-2 1.7-3.3 2.6-3.8.9-.4 1.8 0 2.7 1.3a25 25 0 012.6 6.2c.9 2.8 1.8 6.3 2.6 10.1 1 3.8 1.8 8 2.7 12 .9 4 1.7 7.7 2.6 11 .9 3.2 1.8 5.7 2.7 7.3.8 1.7 1.7 2.3 2.6 1.8.9-.5 1.8-2.1 2.6-4.7 1-2.5 1.8-6 2.7-10.1l2.6-13c.9-4.5 1.8-8.9 2.7-12.5.8-3.6 1.7-6.4 2.6-8 .9-1.6 1.8-2 2.6-1a19 19 0 012.7 6.7c.9 3.4 1.7 7.9 2.6 12.7l2.6 14.5c1 4.6 1.8 8.6 2.7 11.4.9 2.8 1.7 4.3 2.6 4.1.9-.1 1.8-1.9 2.7-5 .8-3.2 1.7-7.8 2.6-12.8l2.6-15.8c1-5 1.8-9.5 2.7-12.5.9-2.9 1.7-4.3 2.6-3.7.9.5 1.8 3 2.7 7 .8 4 1.7 9.3 2.6 15L422 75c1 4.9 1.8 8.6 2.7 10.3.9 1.6 1.7 1.2 2.6-1.4a88 88 0 002.7-12.7l2.6-18c.9-6 1.8-11 2.6-14 1-3 1.8-3.7 2.7-2 .9 1.7 1.7 6 2.6 11.6l2.7 19c.8 6.4 1.7 12 2.6 15.3.9 3.3 1.8 4 2.6 2 1-2 1.8-6.9 2.7-13l2.6-20.4a86 86 0 012.6-14c1-2.4 1.8-1.7 2.7 2 .9 3.5 1.7 10 2.6 17.2.9 7.3 1.8 15 2.7 20.7.8 5.6 1.7 9 2.6 8.6.9-.3 1.8-4.2 2.6-10.4 1-6.2 1.8-14.6 2.7-22 .9-7.4 1.7-13.7 2.6-16.2.9-2.6 1.8-1.3 2.7 3.3.8 4.6 1.7 12.6 2.6 20.7.9 8 1.8 16 2.6 20.6 1 4.5 1.8 5.3 2.7 2a174 174 0 002.6-19.2c.9-8.3 1.8-17.3 2.7-22.8.8-5.6 1.7-7.4 2.6-4.6.9 2.8 1.8 10.2 2.6 18.8 1 8.7 1.8 18.2 2.7 24 .9 5.7 1.7 7.4 2.6 4.1.9-3.3 1.8-11.6 2.7-20.7.8-9 1.7-18.6 2.6-23.6.9-5 1.8-5.2 2.6-.2 1 5 1.8 14.7 2.7 24.2.9 9.5 1.7 18 2.6 21 .9 2.8 1.8-.3 2.7-7.8.8-7.4 1.7-18.9 2.6-27.7.9-8.8 1.8-14.4 2.6-13.3 1 1 1.8 8.8 2.7 18.6.9 9.9 1.7 21.2 2.6 27 .9 5.7 1.8 5.4 2.7-1 .8-6.2 1.7-18.2 2.6-28.2.9-10 1.8-17 2.6-16.5 1 .5 1.8 8.8 2.7 19.4.9 10.6 1.7 22.6 2.6 27.7.9 5 1.8 2.8 2.7-5.5.8-8.4 1.7-22 2.6-31.1.9-9.2 1.8-13 2.6-8.5 1 4.6 1.8 17 2.7 28.4.9 11.2 1.7 20 2.6 19.5.9-.5 1.8-10.3 2.7-22.1.8-11.8 1.7-24 2.6-27 .9-3 1.7 3.7 2.6 15 .9 11.3 1.8 25.7 2.7 31.3.8 5.7 1.7 1.7 2.6-8.8.9-10.5 1.8-26 2.6-33.5 1-7.5 1.8-5.5 2.7 4.4.9 10 1.7 26.3 2.6 34.7.9 8.4 1.8 7.4 2.7-2.4.8-9.8 1.7-26.7 2.6-35.4.9-8.7 1.8-7.4 2.6 2.9 1 10.3 1.8 27.7 2.7 35.9.9 8.2 1.7 5.3 2.6-6.2.9-11.4 1.8-29 2.7-35.7.8-6.6 1.7-.6 2.6 12.3.9 13 1.8 29.9 2.6 33.7 1 3.9 1.8-6.5 2.7-20.7.9-14.3 1.7-28.8 2.6-28.3.9.4 1.8 15.8 2.7 30.2.8 14.4 1.7 23.6 2.6 17.6.9-6 1.8-25.7 2.6-37.7 1-12.1 1.8-12.8 2.7-1 .9 11.7 1.7 32.3 2.6 38.6.9 6.4 1.8-3.9 2.7-19.3.8-15.4 1.7-30.7 2.6-28.1.9 2.6 1.8 22.5 2.6 36.5 1 14 1.8 16.8 2.7 4.7.9-12 1.7-34.3 2.6-40 .9-5.7 1.8 8 2.7 24.4.8 16.4 1.7 28.8 2.6 21.5.9-7.2 1.8-31.2 2.6-41.8 1-10.7 1.8-2.8 2.7 13.8.9 16.6 1.7 34 2.6 29.7.9-4.3 1.8-28.8 2.7-41.4.8-12.6 1.7-6.6 2.6 10.2.9 16.9 1.8 35.8 2.6 31.2 1-4.7 1.8-30.7 2.7-42.7"/>
    <path fill="#fff" d="M153.9 21.8V18l-3.3-5h1.4l1.7 2.7.8 1.4 1-1.5 1.6-2.5h1.3l-3.4 5v3.6zM265.3 21.8v-8.6h1.2l4.5 6.7v-6.7h1v8.6h-1l-4.6-6.8v6.8zM381.2 21.8V18l-3.4-5h1.4l1.7 2.7.9 1.4 1-1.5 1.6-2.5h1.3l-3.4 5v3.6z" font-family="Arial" font-size="12"/>
    <g transform="translate(125.3 6.8)">
        <circle cx="452.5" cy="152.5" r="2.5" fill="red" transform="translate(-15.9 6.2)"/>
        <circle cx="457.5" cy="152.5" r="2.5" fill="#fff" filter="url(#d)" transform="matrix(.3 0 0 .3 300.4 112.3)"/>
        <circle cx="452.5" cy="152.5" r="2.5" fill="navy" transform="translate(-18 1.8)"/>
        <circle cx="457.5" cy="152.5" r="2.5" fill="#fff" filter="url(#d)" transform="matrix(.3 0 0 .3 298.3 108)"/>
        <circle cx="452.5" cy="152.5" r="2.5" fill="red" transform="translate(-19.6 5.3)"/>
        <circle cx="457.5" cy="152.5" r="2.5" fill="#fff" filter="url(#d)" transform="matrix(.3 0 0 .3 296.6 111.5)"/>
        <circle cx="452.5" cy="152.5" r="2.5" fill="navy" transform="translate(-14.4 2.6)"/>
        <circle cx="457.5" cy="152.5" r="2.5" fill="#fff" filter="url(#d)" transform="matrix(.3 0 0 .3 301.9 108.8)"/>
        <use width="575" height="400" transform="rotate(-120 435.6 156.2)" xlink:href="#e"/>
        <g id="e" stroke="#000" transform="translate(-14.4 6.2)">
            <ellipse cx="400" cy="157.5" fill="none" stroke="#999" stroke-miterlimit="2" rx="25" ry="7.5" transform="rotate(-41.7 415.2 88.1)"/>
            <path fill="#f60" fill-rule="evenodd" stroke-width=".5" d="M465.6 141.2c-1 4.2-4.9 8.5-4.9 8.5s6.7-4.7 8-7.2"/>
            <circle cx="402.5" cy="152.5" r="2.5" fill="#ff0" stroke-miterlimit="2" stroke-width=".7" transform="matrix(.67 0 0 .67 197.4 39.8)"/>
        </g>
        <use width="575" height="400" transform="rotate(120 436.3 155.8)" xlink:href="#e"/>
    </g>
    <g fill-rule="evenodd">
        <path stroke="#000" stroke-width="2" d="M316.2 183.6c-10.7-8.5-2.7-15.5 2.3-24 5-8.4 16 10.8 17.7-9.7 1.9-21.6 26.8-15.3 36-4.8s-7 20.5-15.7 22 5 17-11.8 18.8-17.7 6.2-28.5-2.3z" filter="url(#f)" opacity=".5" transform="matrix(.49049 0 0 .49031 270.1 92.7)"/>
        <path fill="#87cdde" stroke="#000" stroke-width=".982674" d="M421.4 181.8c-5.8-4.6-1.5-8.5 1.3-13 2.7-4.7 8.7 5.8 9.7-5.4 1-11.7 14.6-8.3 19.6-2.6s-3.8 11.2-8.6 12 2.7 9.3-6.4 10.3-9.7 3.4-15.6-1.3z"/>
        <path fill="#f55" stroke="#000" stroke-width=".982674" d="M428 174.2c4.5-1.6 10 .5 6.4 2.5s-12.1.8-9.8-.7 3.1-1.7 3.4-1.8zM440.4 159.6c4-.1 6.7-.1 6.7 1.8 0 2.4-1.4 3.2-7 1.7s-3.1-3.5.3-3.5z"/>
        <path fill="#5f8dd3" d="M424 170c.4-.2 2.4-.2 3.2 0 .7.2-1.8 2.4-2.5 2.4-1.2 0-1.5-.5-1.2-1.6 0-.3.4-.5.5-.8zM437 166.3l.7-.3c1.3-.5 2.4-1 3.8-1 .9 0-1.3 2.5-1.5 2.6-.7.6-2.4 0-3.1 0-1.1-.4-.5-1.2 0-1.3zM447.2 166c1 0 2.5-1 2.8.1.2 1-1.3 1.7-2 1.7-1 0-1.5 0-1.5-1.2 0-.3.5-.4.7-.6zM439.4 173.4v3.7c0 1-.1 2.1-.5 3.1s-1 1.4-2 1.4c-.8 0-1.7 0-2.2-.3-.5-.3 1.5-1.8 1.6-2 .8-.5 1.3-1.2 1.6-2 .3-.5.3-1.5.6-2.1l1-1.8zM426.1 181.2l.7-.2c1.3-.5 2.4-1 3.8-1 .9 0-1.2 2.4-1.5 2.6-.7.6-2.4 0-3.1-.1-1.1-.3-.4-1.1.1-1.3zM438.7 157.1c.9 0 2.4-1 2.7.1.2 1-1.3 1.7-2 1.7-1 0-1.4 0-1.4-1.2 0-.3.4-.4.7-.6z"/>
    </g>
    <path fill-rule="evenodd" d="M299.7 145.3c11.8 0 16.8 3 16.3 6.2-.5 3.1-3.7.5-9 4s.9 3.5 4.4 9-19.7 17.7-21.7 7.3 1.2-10 4.5-12c3.4-2-1.6-14.7 5.5-14.5z" filter="url(#g)" opacity=".5" transform="translate(113.1 -2.1)"/>
    <path fill="#c8ab37" fill-rule="evenodd" d="M410.1 142.4c11.9-.2 16.9 2.9 16.4 6-.5 3.3-3.7.6-9.1 4s1 3.6 4.4 9-19.7 17.8-21.7 7.5 1.3-10.1 4.6-12.1-1.7-14.7 5.4-14.4z"/>
    <path fill="#8e7307" fill-rule="evenodd" d="M419.8 148.9c5.7 0 0-6 2.8-4.9 2.8 1.2 4 2.8 3.8 4.5-.5 3.2-3.7.5-9 4s.9 3.5 4.4 9c1.9 3-4 8-10.2 10.2-3 1-10.8 1.9-8.4-.3 1.7-1.7 13.2-6 13.2-8 0-3.6-3.3-1.5-4.3-9.6-.3-3 3.7-4 7.7-4.9z"/>
    <path fill="#5f8dd3" fill-rule="evenodd" stroke="#000" d="M413 145.2c4-.2 6.7-.2 6.7 1.7 0 2.5-1.4 3.3-7 1.8-5.6-1.5-3.1-3.5.3-3.5zM406.5 165.7l.6-.2c1.3-.6 2.5-1 3.9-1 .8 0-1.3 2.4-1.5 2.6-.8.6-2.5 0-3.2-.1-1-.3-.4-1.1.2-1.3z"/>
    <path fill="#f55" fill-rule="evenodd" stroke="#000" d="M405.3 161.6c1 .2 3-.3 4.4-.3 1.3 0 2.5.3 3.6 1 .8.7 1.7 1.1.8 1.8l-.4.3c-.6.6-2.3.8-3.1.8l-4.3.2c-1 0-1.7-.5-2.5-1.1-.6-.5-1-1.1-1-1.9 0-.5 1.2-.6 1.5-.7h1z"/>
    <path fill="#4d4d4d" fill-rule="evenodd" stroke="#000" stroke-width=".5" d="M414 157c.5 0 .6.3.6.8s-1 .6-1.5.7c-.7.2-.9-.4-.8-1l1.7-.5zM407.7 151.9c0-.2 1.6-.6 1.6.3 0 .8-.4 1.3-.9 1.8l-.2.2c-.5.5-1-1-1-1.2-.1-.5.4-.7.5-1.1zM417.8 161c.2-.3 2 .4 2.2.5.8.4-.4 1.4-.7 1.5-.6.2-1.2-.3-1.6-.5-.5-.3-1.2-1-.6-1.3.2-.2.5-.1.7-.1zM404.7 169.8c.4 0 .6.2.6.8 0 .5-1.1.6-1.5.7-.8.2-1-.5-.8-1l1.7-.5zM423.8 145.8c.5 0 .7.3.7.8s-1.2.6-1.5.7c-.8.2-1-.4-.8-1l1.7-.5z"/>
    <path fill="none" stroke="#000" d="M410.1 142.4c11.9-.2 16.9 2.9 16.4 6-.5 3.3-3.7.6-9.1 4s1 3.6 4.4 9-19.7 17.8-21.7 7.5 1.3-10.1 4.6-12.1-1.7-14.7 5.4-14.4z"/>
    <path fill="#8e7307" fill-rule="evenodd" d="M407.1 159.8c0 .2-1.6.6-1.6-.3 0-.8.4-1.3 1-1.8 0-.1 0-.2.2-.3.4-.4.9 1 1 1.3 0 .5-.4.7-.6 1.1z"/>
    <path fill="none" stroke="#aaa" stroke-linecap="round" d="M401 159l-2.3-.7h-.5c-1-.2-1.7-.1-2.4.3M405.9 152.9c-.3 0-2.7-1.8-3.6-2.2-.4-.2-1.4-.2-2-.2M406 150.5c-.1 0-1-1.3-1.4-1.5a8 8 0 00-3.8-1.1M405.9 147c-1-.4-2.5-1.6-4-2.2l-1-.7M406.7 144.4c-1-.5-2.8-1.7-4.3-2l-.7-.3M407.9 142.8c-1-.3-2.7-2-4.2-2.3h-.2M410.9 142.4c-.9-.1-2.7-2.4-3.8-2.8l-.2-.1"/>
    <path fill="none" stroke="#aaa" d="M414.5 142.6c-.5-.2 0-1-.1-1.5-.4-1.5-3.6-2.5-4.9-2.8"/>
    <path fill="none" stroke="#aaa" stroke-linecap="round" d="M417 142.7c-.1-.2.4-1 0-1.8l-.6-1c-.2-.3-.5-.4-.9-.6M419.8 142.9c-.3-.6.8-1 .8-1.6 0-.6-.3-1.2-.6-1.6M421.9 143.7l1.7-1.5c.3-.2-.3-1.4-.3-1.5M424.3 144.5c.4-.3 1.4-.5 2-1.2.7-.6 0-1.4-.4-1.9h-.2M425.9 146.1c-.3-.4 1 0 1.4-.3.6-.6 1.2-.5 1.4-1.4 0-.4-.3-.6-.5-.8M426.8 148.5c0-.5 1.1.1 1.6-.2.7-.4 1.6-.9 2-1.4M426 149.8l1.7 1c.4.2 1.4-.8 1.8-.9M424.7 150.2c.5-.1.4 1 .6 1.5.4.8.9 1 1.6.7M422.2 151c.3.6.8 1.6 1.5 2.4.3.4 0 .2.5.3M419.1 151.5c.1.1.5 2 .8 2.5.4.5 1 .5 1.6.6M417 153.3c.2.4.7 1.4 1.3 2 .3.5.6.2.8.2M418 157.2c.2.2 1.6 0 2.2 0h.3M420.8 159.6c.3 0 1.4-.4 2.1-1l.1-.4M421.8 161c.6-.5 2.3.6 3-.6.8-1.4-.4 1 .2-.5M422 163.5c.4-.6 1.5 0 2.3-.2l.5-.2h.3M421.4 165.4c.4-.1.7.4 1 .4l.9-.1M420.2 166.9c.4 0 .4.8.7 1 .4.4 1.4.8 2 .8M418.3 168.3c.4.4.4 1.5 1.4 1.9.3.1.3-.1.5-.2M415.7 170c.4.3.8 2.3 2 2.7h1M413.8 171.1c.7.3.2 1.5.5 2l.5 1M411.8 171.7l.6 2.6c.1.3.6.8.8 1M409.2 172.6l.5 2.5c.2.8.7 1.2 1.4 1.2M406 173c.1.2.4 1.3.4 2 0 1 .5 1 1.3 1.3l.4.1M404 172.6c.4.2-.5.6-.5 1 0 1 0 1.5.4 2.3l.1.4c.2.3.6.4.8.6M402.3 172c0 .2-1.5-.4-2.3.5-.3.2-.4 1.7-.6 2M400 170c-.4.5-1.2 0-1.8 0-.8 0-1.1 0-1.9.3M399.7 166.3c-.8 0-2.3-.7-3.5-.7-.3 0-.2.7-.2.9M399.2 162.7c-.6 0-1.8-.6-2.8-.6h-.9M399.6 160.4c-.6 0-1.8-.6-2.7-.6l-1.2.1M405.6 155.7c-.2-.4-1-1.2-1.7-1.5l-1.5-1-1.2-.4-.8-.2M403.3 157.8c-.4-.2-1.3-1-2-1.3l-.2-.1c-.5-.2-1.1-.4-1.6-.4h-.5"/>
    <path fill="none" stroke="#000" stroke-linecap="round" stroke-miterlimit="2" stroke-width="2" d="M125 10h525v15H125z"/>
    <path fill="none" stroke="#000" d="M185.5 9.5v15M225.5 9.5v15M310.5 9.5v15M350 10v15M415 10v15"/>
    <path d="M415 10h235v15H415z"/>
    <g transform="translate(139 -1.6)">
        <path fill="#fff" fill-rule="evenodd" stroke="#000" d="M362 172.2l-1.5 1.3 5.1 6 1.6-1.3zM362.8 170.8l8-6.4-1.3-1.5-8 6.3"/>
        <path fill="#fff" fill-rule="evenodd" stroke="#000" d="M367.8 146l-9.8 3.3-.8.2.1.8L359 168l-8.4-8.5-.7-.7-.7.7-10 10 1.4 1.5 9.3-9.4 9.7 9.7 2 2-.3-2.8-1.9-19.5 9.1-3z"/>
        <g transform="matrix(.7 0 0 .7 107.1 48.2)">
            <circle cx="452.5" cy="152.5" r="2.5" fill="navy" stroke="#000" stroke-miterlimit="2" transform="matrix(1.5 0 0 1.5 -305.9 -87.8)"/>
            <circle cx="457.5" cy="152.5" r="2.5" fill="#fff" filter="url(#d)" transform="matrix(.45 0 0 .45 168.4 71.8)"/>
        </g>
        <g transform="translate(-.4 6.5)">
            <circle cx="452.5" cy="152.5" r="2.5" fill="#f60" stroke="#000" stroke-miterlimit="2" stroke-width=".7" transform="matrix(1.5 0 0 1.5 -318 -64)"/>
            <circle cx="457.5" cy="152.5" r="2.5" fill="#fff" filter="url(#d)" transform="matrix(.45 0 0 .45 156.2 95.6)"/>
        </g>
        <g transform="translate(-10 14.5)">
            <circle cx="452.5" cy="152.5" r="2.5" fill="green" stroke="#000" stroke-miterlimit="2" stroke-width=".7" transform="matrix(1.5 0 0 1.5 -328.8 -73.3)"/>
            <circle cx="457.5" cy="152.5" r="2.5" fill="#fff" filter="url(#d)" transform="matrix(.45 0 0 .45 145.5 86.4)"/>
        </g>
        <g transform="translate(-5.8 -14.3)">
            <circle cx="452.5" cy="152.5" r="2.5" fill="red" stroke="#000" stroke-miterlimit="2" stroke-width=".7" transform="matrix(1.5 0 0 1.5 -323 -54)"/>
            <circle cx="457.5" cy="152.5" r="2.5" fill="#fff" filter="url(#d)" transform="matrix(.45 0 0 .45 151.2 105.6)"/>
        </g>
        <g transform="translate(8.6 -5)">
            <circle cx="452.5" cy="152.5" r="2.5" fill="green" stroke="#000" stroke-miterlimit="2" stroke-width=".7" transform="matrix(1.5 0 0 1.5 -328.8 -73.3)"/>
            <circle cx="457.5" cy="152.5" r="2.5" fill="#fff" filter="url(#d)" transform="matrix(.45 0 0 .45 145.5 86.4)"/>
        </g>
        <circle cx="452.5" cy="152.5" r="2.5" fill="#d4aa00" stroke="#000" stroke-miterlimit="2" transform="matrix(1.05 0 0 1.05 -104.4 2.8)"/>
        <circle cx="457.5" cy="152.5" r="2.5" fill="#fff" filter="url(#d)" transform="matrix(.315 0 0 .315 227.6 114.6)"/>
        <g transform="matrix(.7 0 0 .7 106.9 81)">
            <circle cx="452.5" cy="152.5" r="2.5" fill="navy" stroke="#000" stroke-miterlimit="2" transform="matrix(1.5 0 0 1.5 -305.9 -87.8)"/>
            <circle cx="457.5" cy="152.5" r="2.5" fill="#fff" filter="url(#d)" transform="matrix(.45 0 0 .45 168.4 71.8)"/>
        </g>
    </g>
    <g transform="translate(114 5)">
        <use width="575" height="400" transform="translate(-2.1 9.7)" xlink:href="#h"/>
        <use width="575" height="400" transform="translate(14.4 1.5)" xlink:href="#h"/>
        <use width="575" height="400" transform="translate(8.3 -9)" xlink:href="#h"/>
        <g id="i" stroke-miterlimit="2" transform="translate(23 -6.4)">
            <circle cx="452.5" cy="152.5" r="2.5" fill="red" stroke="#000" stroke-width=".5" transform="matrix(2 0 0 2 -400.9 -147)"/>
            <circle cx="457.5" cy="152.5" r="2.5" fill="#fff" filter="url(#d)" transform="matrix(.6 0 0 .6 231.6 65.5)"/>
        </g>
        <use width="575" height="400" transform="translate(-20.1 7.4)" xlink:href="#i"/>
        <use width="575" height="400" transform="translate(-6.4)" xlink:href="#i"/>
        <use width="575" height="400" transform="translate(-2 11.2)" xlink:href="#i"/>
        <use width="575" height="400" transform="translate(-18.6 .4)" xlink:href="#i"/>
        <use width="575" height="400" transform="translate(4.8 4.8)" xlink:href="#h"/>
        <use width="575" height="400" transform="translate(-15 10)" xlink:href="#i"/>
        <use width="575" height="400" transform="translate(11.1 -.7)" xlink:href="#h"/>
        <use width="575" height="400" transform="translate(1.1 -8.2)" xlink:href="#h"/>
        <g id="h" stroke-miterlimit="2" transform="translate(23.6 15.5)">
            <circle cx="452.5" cy="152.5" r="2.5" fill="navy" stroke="#000" stroke-width=".5" transform="matrix(2 0 0 2 -414.9 -164.5)"/>
            <circle cx="457.5" cy="152.5" r="2.5" fill="#fff" filter="url(#d)" transform="matrix(.6 0 0 .6 217.6 47.9)"/>
        </g>
        <use width="575" height="400" transform="translate(-8.6 14.5)" xlink:href="#i"/>
    </g>
    <g>
        <g opacity=".3" transform="rotate(-53 233.5 -269.4) scale(.16)">
            <g id="j">
                <path d="M-44.1 295.7c-5 0-.5 12-8 12s-6-15.5-14.6-15.5c-6.1 13.5-2.3 107.6 0 122.5 8.3 0 4.5-44.2 6.6-52 .7-2.8 34.5 53.5 37 57.5s5.5 10 27 10 30.5-10.5 39.5-19 21.5-22.5 21.5-42-21.5-35.5-21.5-40 31.5-7 31.5-37 27-56.5 27-71.5-25.5-16-50-4.5-41 23-70.8 51.5" transform="translate(-457 -114)"/>
                <path d="M-63.1 364.7c8 12.5 40 57.5 45 60s-32.5-60-47-67M-63.2 295.7c4.2-12.5 23.3-22.2 24.8-30.5 1.5-7.9 4-6.6 4 .9 0 5.8-27.5 27.6-26.2 30.6" transform="translate(-457 -114)"/>
            </g>
            <use width="400" height="360" transform="matrix(-1 0 0 1 -1046.1 0)" xlink:href="#j"/>
        </g>
        <g transform="rotate(-53 295.9 -153.6) scale(.16)">
            <g id="k" fill-rule="evenodd">
                <path fill="silver" d="M219 178c29 0 85-7 89-4s-1 15 3.5 18.5 21 22 20.5 27.5-10.5 33.5-14.5 37-54.5 26.5-62 21-46.9-57.7-46.5-62c.5-5.5 11-38 10-38z"/>
                <path fill="#949494" d="M306.5 85.5c-14.3 7-74.9 57.2-83 81.5-3 9 13.5 12 32.5 11s74 0 78-9 18-80 24-86.5-41.4-1.9-51.5 3z"/>
                <path fill="#474747" d="M208 221c8 12.5 40 57.5 45 60s3.5-1 0-6.5-32.5-53.5-47-60.5M222 167.8c1.8-9.8.5-15.3 30.3-43.8s44.5-36 46.7-36c8.6.3-22.8 29.9-41.5 43-14.2 10-35 37.3-35.5 36.8z"/>
                <path fill="#474747" d="M218.5 168.4c25.1-11.7 31.5-16.6 48-28 16.7-11.3 30.1-25.8 28.4-27.2-1.8-1.4-20.6-.3-20.6-.3l14.5-13.1s5.3 4.2 11 6.3c5.6 2.2 30 .4 30 .4l4 5.3s-23.4-.4-28.4 2.8c-4.9 3.2-18 21.6-32.5 31.5-14.5 9.9-52.7 27.2-52.7 27.2"/>
                <path fill="#474747" d="M294.9 121c14.3 3.2 24.7 1.9 36 .7 3.4-.3 7.6 9 3.6 9.6-23.2 2.7-37.3 2-47.8-1.1M274.7 140c24 7.5 44.6 10 54.5 9 9.9-1.1 22.6 5.2-.7 4.9-23.4-.4-53-6.7-57-9.2M217.5 198.5c4 1 40 60.5 47 72.5s14.3 15 3-4c-7.6-12.8-39-65-47.5-70.5M223 194c29 14.5 52.5 53 60 72 5 12.7 9.3 9.5 5.5-.5-5.5-14.5-31-61-64.5-76"/>
                <path fill="#474747" d="M258.8 220.5c17.2.8 34.4 17.8 42.2 34 6 12.7 7.2 9.9 3-1-6-15.5-27.8-39.5-48.8-37.5M258.8 186.4c7 13.4 12.7 19.5 24.4 24.4 11.7 5 6 9.2 6 9.2s3.5 3.3 3.9.7c1-6.7-1.1-10.4 33.6.7 3.5 1.1 4.1-4-2.1-5.6-32.8-8.8-43.4-9.3-55.2-22 21.8 4.4 30 6.8 45 5.3 3.4-.3-1.9-5.3-6.8-5-18 1.4-49.1-10.5-49.1-10.5"/>
                <path fill="#474747" d="M317.8 238c-14.8-13.8-21.9-16.2-25-19.8-3.2-3.5-13.8 7.5-13.8 7.5s1.4 4.9 3.1 3.1c1.8-1.7 7.1-14.1 30.8 9.2M207.9 152c4.2-12.5 23.3-22.2 24.8-30.5 1.5-7.9 4-6.7 4 .8 0 5.8-27 27.4-25.8 30.3"/>
                <path d="M204.4 148.5c-6 13.4-2.3 107.6.1 122.5 8.2 0 3.5-44.5 6.5-52s18-25 16-28.5-4-9.5 5.5-9.5c4.5 0 18.5 7 25.5 7s19.5-9.5 29.5-9.5 14 2 16 7-.5 9.5 1 12.5 11.5 0 14.5 7 9 26 5 28.5-12-2-14.5 1 8.5 6.5.5 13.5-7.5-1-10 1 .5 9.5-6 13-10.5-4.5-13.5-3-2 10-6.5 11-4.5-7.5-9-6-2 5-7.5 6-12 2.5-9.5 6.5 5.5 10 27 10 30.5-10.5 39.5-19 21.5-22.5 21.5-42-21.5-35.5-21.5-40 31.5-7 31.5-37S373 92 373 77s-25.5-16-50-4.5c-28.1 13.2-32.5 17-32.5 21.5 0 5.2 40 13.5 40 20.5S316 122.9 316 128c0 5.8 14.5 4 14.5 10 0 11.7-19.3 9.1-19.3 13.2s18.6.4 18.6 10c0 6.8-36.3 7.3-51.8 9.8-27.8 4.5-45 4-48 1s2-20-3-20-.5 12-8 12-6-15.5-14.6-15.5zm109.8-56.4c0-7.3 6-7 6 0s-6 7.3-6 0zm18.3 10.7c18.5 0 3-9.5 0-9.5-3.3 0-18.3 9.5 0 9.5zm5.6 8c-8.2 9.3 3.5 5.8 4.8 4.2 1.5-1.6 3.4-13.4-4.8-4.2z"/>
            </g>
            <use width="400" height="360" transform="matrix(-1 0 0 1 409.5 0)" xlink:href="#k"/>
        </g>
    </g>
    <g transform="translate(115 -1)">
        <g transform="matrix(.82969 0 0 .82969 66.1 31)">
            <path fill="#666" fill-rule="evenodd" stroke="#ddd" stroke-width=".5" d="M176 193.6l34.2-51.5s9.1-15.8 11.8-14c2.7 2-9.1 15.9-9.1 15.9l-37 49.6"/>
            <ellipse cx="132.5" cy="110" fill="#fff" stroke="#000" stroke-linecap="round" stroke-miterlimit="2" stroke-width="1.2" rx="2.5" ry="10" transform="matrix(.2656 .18657 -.41828 .59454 227.8 45.2)"/>
            <path fill="none" stroke="navy" stroke-width="1.2" d="M219 136c6.2 2.1 13 4.3 18.4 7 7.1 3.4 15.2 12.9-37.1 27.5-48.1 13.5-36.8 5.3-36.8 5.3M207 118c-9.7 8.8-1 13.2 10.8 17.5"/>
        </g>
        <circle cx="-47.7" cy="120.7" r="5.3" fill="none" stroke="#ddd" stroke-linecap="round" stroke-miterlimit="2" stroke-width="2" transform="translate(260.5 70)"/>
    </g>
    <g>
        <g fill="#9ABADA" fill-rule="evenodd">
            <path d="M130.5 130.5v5.1h-.3v.8h.3v.3l-.1.5h-.2l-.2.2v.3h-.1l-.3.2v.8h-.1l-.3.2v1h-.1l-.3.3v1.1c-.2 0-.3.2-.3.3v2.1h-.3l-.3.3v3h-.2c-.1 0-.3.1-.3.3v5h-.2c-.1 0-.3.2-.3.4v6.5l-.2.2V193h22.2v-33.6l-.3-.2v-6.5c0-.2 0-.3-.2-.3h-.3v-5.1c0-.2 0-.3-.2-.3h-.3v-3l-.2-.2h-.3v-2.2l-.2-.2h-.2v-1.2s0-.2-.2-.2h-.1v-1l-.3-.3h-.1v-.7c0-.1-.1-.3-.3-.3v-.2l-.3-.3h-.1l-.2-.4v-.3h.3v-.8h-.3v-5.2h-.4v5.2h-.3v.7h.3v.3l-.1.5h-.2l-.2.2v.3h-.1l-.3.2v.8h-.1l-.3.2v1h-.1l-.2.3v1.1h-.2c-.1 0-.2.1-.2.3v2.1h-.3c-.1 0-.2.1-.2.3v3h-.3l-.2.2v5.2h-.3l-.2.2v6.6l-.3.2v9.3h-6.2v-9.3l-.3-.2v-6.6s0-.2-.2-.2h-.3v-5.2s0-.2-.2-.2h-.3v-3c0-.1 0-.3-.2-.3h-.3v-2.1l-.2-.3h-.2v-1c0-.2 0-.3-.2-.3h-.1v-1c0-.2-.2-.3-.3-.3h-.1v-.7c0-.2-.2-.3-.3-.3v-.2c0-.2-.2-.3-.3-.3h-.2v-.7h.2v-.8h-.3v-5.2h-.3zm4.2 39.5h3l-3 5.7V170zm3.3 0h3v5.8l-3-5.8zm-.2.4l3.1 6.3V190h-6.2v-13.5zM159 131.5v5c-.2 0-.3.2-.3.3v3.6c0 .1-.2.1-.2.3v3.2l-.1.3v1.2l-.9 2.4h-.5l-.2.3v.6h-.4c-.1 0-.3.1-.3.3v3.5h-.3c-.2 0-.3 0-.3.2v4.3c0 .2-.4.2-.4.4v20.4h-.6c-.1 0-.2.1-.2.3v4.5h-1.4c-.1 0-.3.1-.3.3v6.7h-1.9s-.2.1-.2.3v3h17.6v-3c0-.2 0-.3-.2-.3H166V183c0-.2-.1-.3-.2-.3h-1.4v-4.5c0-.2-.1-.3-.3-.3h-.6v-20.4c0-.2-.4-.2-.4-.4v-4.3c0-.1 0-.2-.2-.2h-.4v-3.6l-.2-.2h-.4v-.6c0-.2-.1-.3-.3-.3h-.5l-.9-2.4v-1.2V140.6c0-.1-.2 0-.2-.2v-3.6c0-.2-.2-.3-.3-.3v-5h-.4z"/>
        </g>
        <text x="114.8" y="214" fill="#fff" font-family="Arial" font-size="12" transform="translate(8)">
            <tspan x="114.8" y="214">Buildings</tspan>
        </text>
    </g>
    <g stroke="#ddd" stroke-width="5">
        <path stroke-width=".25" d="M204.1 190.9c-1.5-.8-.8-2.6-2.2-3.5.3-2.2.4-4.5-.3-6.6 0-2.2-1.3-4.3-.6-6.6a35 35 0 01-.8-6.5c-.2-1.2-1-4.6-1-1.6-.4 2.1.2 4.3-.4 6.4.7 1.7.9 3.6.4 5.4-.3 2.1-.5 4.2 0 6.4.7 1.9-.2 3.2-2.1 3.5-.3 1.7-3.8 3.1-4.2 1 0-2.4 4-2.5 3.3-5.2-.5-3.3-1.8-6.6-1.3-10-.6-2.5-1.3-5-1.3-7.5 0-2.1-1-4.3-.2-6.4.4-1.7 0-3.5.8-5.1.5-1.7-.7-3.5-.6-5.2-1.1.4-3.3 2.1-5 1.8-2.4 0-1.7-3.3-1.8-4.9 0-1.6.4-3.1.4-4.7-.5-1.7-1-3.8-.4-5.5.8.5 1.1-1 1.8-.8 1.3-1.2 1.7 1.7 1.5 3 0 1 2-1.4 2 .2a7.5 7.5 0 00-2.3 6.2c0 3 2.1-.3 3-1 1.7-1 5.4-1.3 4.4-4-1-1.6-2.3-4.3-.4-5.7 1.2-1.7 3.8-2.1 5.2-.3 2 2 .5 4-.3 6-.4 1.8 1.7 2.5 2.8 3.3 2.8 0 2.9 3.4 3.2 5.4.2 2.2.2 4.5.7 6.6 0 3-1.2 6-1.3 9 .1 1.6-1.9 2.3-1.6 4-.5 2.1-1.1 4.5-.3 6.7.8 3 0 6.2-.6 9.2-.4 2 1 3.6 1.7 5.4-.1 1-1.1 1.9-2.2 1.6zm.6-.3c-1-.2 0-2 .5-.3.5.3-1-1.4-.1-1 .1-1 1.2 1.4.4-.3.8.1-.7-2.9-1.6-3.3.7-1.7.6-4 1-5.8.5-2.2.5-4.6-.5-6.5.1-1 .3-2.1-.2-2.3.4-1.5 2.2-4.4-.3-4.4.1-.9 1.8-4-.2-2.3-2-.4 1.3-2.2 1-3.5.1-1.8-.9-3.4-.5-5-.8-2.1.4-4.1.1-6.2-.2-1.3-2.5.3-3.6-.4-1.7-.7-3.6.8-5.6 0-1-.7-1.5-1-1.1.4.5 2.3.8 4.6.2 6.8.8.7-.8 1-.3 2.3 0 1.4-.8 2.8-.3 4.3.5 2.4 0 5.1 1 7.4.6.3 1 1.3.1.7 0 1.6 1.3 2.8.5 3.8-.2 3.2 1.3 6.3 1.4 9.6 0 1.5-2.2 2.3-2.8 2.8 1 .3-1.7 2 .3.8 1.3-.5-1.7 1.4.5.2 1.1 0-2.6 1.5-.2 1.2 1.8-.2 2-2.1 3.5-3 1.8 1.1.8-2.6.8-3.8-.6-1.7.2-3.4 0-5 .7-1.1.6-4.3-.2-4.4-.1 2.8-.7-.8 0-1.6.6-2.2-.1-4.4.4-6.6.3-1.3-2-1.1-1.2-2.8-.2-1.4-1.8-2.1-2-3.8-1-2 1 .8 1 1.6 1.2 1 1.4 2.1 1.5 3.6 1 .7-.7-2 .4-2.2-.2 1 .5 3 .6 1-.2-1.5.6-1.3.3 0-.2 1-.2 2 .3.4-.6-1 .7-2.6.2-.7-.5 2.2.4 4.2.6 6.4 0 2.4.4 4.8 1.6 7 .5 2.6-1.2-3.2-1-.2-.3 1.9 1 3.5.8 5.3.9 1.1.4 3 .4 4.7 1.2 1.6-.2 4.6 2.2 5.2h.1zm-6.5-4.6c-.2-.8.3-3.8.4-1.6-.2.3.2 1.7-.4 1.6zm4-11.2c-.5-.6-.8-4-.2-1.6-.2.7 1.5 2 .2 1.6zm1.3 0c0-1.9 1-.5 0 0zm.2-1.7c-.3-1.2.8-1.7.2-.2 0 .1-.1.4-.2.2zm-7.5-.1c-.3-.8-1-2.2.3-1 1.4.3-.6.4-.3 1zm4.3-11.7c1-1 1.5-2.8 2.4-4-.4 1.3-1 3.3-2.4 4zm-2-4.9c0-1 1.2.4 0 0zm-2.2-2.1c1.4-.7 1-4.3 3-3.7-2.1.2-1 3.5-3 3.7zm5.3 0c-.5-1-2-3.3-1.8-3.7 1 .9 1.6 2.8 2 3.7h-.2zm3.9 35.5c-.4-.5 0 .4 0 0zm-12-1.8c.1-.4-.5.3 0 0zm9.3-.4c-.2-2.4-1.1.5 0 0zm1.6-21.2c.6-.7 1.8-3.7 1-1.2-.4.8-.6 1.7.1.4 0-1.4 1.6-1.6.7 0 1.2-1.8.4-4 1.2-6 .6-2.3 1.1-4.7.3-7-.2-1.3 0-2.8-.4-4.1-1 1.3.5-3-.7-3.6-.3-1.6-2.6-1.3-3-1.8-.1-.6-2-2.1-2-1-.3-1.1 0-2.6-1.3-1-1.1 1.6-3-1.3-3 .8-.8.4-2.7 1.7-.5 1.3 1-.3 2.2.3.4.3-1.8 0-4.5-.5-5.2 1.7.8.7-2.8.8-1.6 2.4.4.8 0 3-.2 1s-1-3.8-.7-5.9c-.2-1.6 2-3.4 2-4.4-1.3.6-2.6 2-3 2.7-.6-1.5 2.4-1.6 1.3-3.4.1-1-.2-2.9-.3-.8.4 1.8-2.6 1.4-1.5-.4 0-1.7-.7 1.5-.4 2-1.9 1 1 3.3-.2 4.8-.1 1.8-.7 3.9 0 5.5-.8 3 3 2.4 4.4.8.9-.8 0 1 1-.2 1.6-1 .4-3.4.4-3.7 1.5.3.2 3.8 2.7 3.5 2 .5 3.5-1.1 5.4 0 2.3.8 3.2-1.5 3.7-2.9-.5 2.1-.6 4.4 0 6.5 0 .8 1.8 2 1 2.6-1-2.3-.2 2.8-.3 3.7.6 1.9-1 2.6-1.6 4-1.7 1.8.3.4 1.2.2 0 .8-1.2 3-.9 3.2zm-1.5-17.7c-.7-1 1.7 0 0 0zm-7.5 0c-.9-1 1.5 0 0 0zm-2.8-.8c.8-1.6 1.3 0 0 0zm7-.8c0-1.4.9.1 0 0zm0-1c-.2-1.3.8 0 0 0zm-4.5-1.7c0-.9 1.3-.1 0 0zm8.4 0c-.7-1.8 1.4.7 0 0zm-4.4-.7c-.5-.7 2.3-.4 0 0zm2.7-.1c-1 0-2.3-.8-.5-.5 1 0 3 .4.8.5h-.3zm-2.5-.7c-1.4-1 .8.2.8-1.3.8-.5-.5 1.7-.8 1.3zm6.4 23.4c.3-.7-.6.6 0 0zm-.5-5.6c.3-2.4.1-4.8-.2-7.2-.4-2.9-1.2.8-.6 1.7.1 2 .4 4 .7 5.7l.1-.2zm-5.9-19.5c1.3-.3 2.4-2 1.8-2.5 1.3-1.3-.6-2.3-.9-3.2-1.1.2-2-.2-2.8 1-.8 0-1-.2-.3.6 0 1.4.3 4.2 2.2 4.1zm-.5-.7c-.3-.7 1.6.2 0 0zm-.7-.5c0-1 3.4.1.8.1h-.8zm.2-.7c-.7-1.4 1.2.7 1.4-.7.9 1-1 .7-1.4.7zm.4-.5c.8-1.2-2.5-1-.8-1.4 1.5 0-2-.5.3-.4.8 0 1 1.5.5 1.8zm1.1-1c-.9-.7 2.2-.2.5 0h-.5zm.8-.5c-3.2 0 1.3-.6 0 0zm-13.5 1c.1-1-.4-2.5-.4-.7 0 .1.1 1.2.4.7zm15.2-.5c.1-1.2-1 1.4 0 0zm-13.4-1c.1-1.2 0-2.2-.3-.4-.4.6.3 2.3.3.4zm-.7.2c0-.5 0 .6 0 0zm13.9 0c-.2-.8.4-1.6.4-.3.7-1.1-.8-1.8-.9-3-.5-.2-.7 1.4-.7 0-1-2.1-3.6-.1-4.5 1-.2.8-.5 3 .1 1.2 1.2.6 2.3-1.7 3.3-.6.6-.6 1.5-1.3 1 .1-.2.7.9 1.6 1.3 1.6zm-12.8-.8c-.1-1.2-.2 1.4 0 0zM228.3 190.8c-.2 0-.4-.2-.5-.3a1 1 0 00-.4-.3l-.6-.4-.4-.7c-.3-.6-.4-.8-.8-.8-.3-.1-.7-.4-.8-.7v-.9-1l-.3-.7c-.3-.9-1-2.3-2.2-4.4a7.6 7.6 0 01-1-2.2l-.1-1.3v-.9l-.2-.3-.4-.7c-.4-.7-.9-1.8-1.1-2.8a24.3 24.3 0 00-2.3-6.2l-.1.7-.1 1.2v5l-.2.8.3 1.1c.2.9.3 2 .1 3.2v1.7l-.2 2.4V184.1l.4 1.2c.4 1 .3 1.2-.7 1.7l-.8.5-.4.7c-.2.6-.5 1-.8 1l-.5.2-.6.2-.3.1h-.3c-.5-.3-.6-.5-.6-.8v-.3c0-.3 0-1 .2-1.1 0-.3.3-.4.6-.6.2-.1.6-.4.8-.8l.2-.3.2-.4.3-.5c0-.2 0-.9-.2-1.5a330.2 330.2 0 00-1-4.3l-.5-2.8.1-1.7v-.6a76.4 76.4 0 01-.4-2l-.8-2.3c-.6-2-.6-1.8-1.3-2.6l-.7-1-.3-.7c-.3-.4-.3-.6 0-1l.5-1.5v-2c-.1-3.5 0-5.3.3-6l.6-1.7v-2.5l.2-2.6c.2-.6.4-1 .7-1.3a4 4 0 011.1-.7c.5-.2.7-.4.8-1l.1-.4.1-.8c0-.8 0-1.1-.4-2-.2-.8-.3-1-.2-1.5l.2-1.2c0-.7.2-1 .6-1.5.5-.7.8-.9 2.4-1.7.5-.3 1.5-.3 1.9 0 .3.2.8.7 1.2 1.3a28.4 28.4 0 001 1.7c.2.2.3.9.4 1.3v1.9l.1 2 .2.9c.1.5.1.5.5.7a3.7 3.7 0 011.8 2.9l.1 2a16.5 16.5 0 00.5 4.1l.1.7v2.7l-.4 2-.3 1.3-.2 1v.5l.3 2v2.2c.1.4.2.9.2 2a14.5 14.5 0 00.5 5c.2 1.2.2 1.4.4 1.7a7.6 7.6 0 011 2.5l.2 1.5a57.6 57.6 0 00.7 4.6l.7 1.7 1.2 1.4c.8.7.9 1 .9 1.6 0 1-.1 1.3-.3 1.5a1 1 0 01-.6.2h-.4zm.7-.2c.2-.2.2-.3-.2-.4-.5-.3-.8-.6-.6-.7l.3.2.3.2-.1-.2c-.3-.3-.3-.5-.2-.6l.2-.2v-.1l.2-.2c0-.2 0-.2.2 0 .1.1.1.1.1 0 0 0 0-.3-.3-.5-.2-.3-.3-.3-.3 0h-.1c-.1.1-.1 0-.3-.2-.2-.6-.4-.9-.6-1.1l-.4-.8s0 0 0 0c-.1 0-.5-.7-.6-1.1-.2-.5-.5-2.5-.7-4.3a11.4 11.4 0 00-1.2-4.4v.3l-.2.2-.2-.9a8 8 0 000-1.4l-.4-1.3c-.1-.6-.2-1.2-.2-3.3 0-1.8 0-2.6-.2-2.8 0-.2-.2 0-.5.4 0 .2-.2.3-.2.3l-.3.2-.2.2s-.2 0-.3-.2l-.2-.1-.1-.1c-.2-.1-.1-.5 0-.9.2-.4.2-.8.1-1.2 0-.3-.1-.2-.3.3-.1.4-.4.6-.6.4l-.1-.7v-1l.1-.6c0-.6.2-1 .5-1.6l.1-.4a25 25 0 00.2-3.2v-.7l-.1-.5-.7-1.6c-.5-.8-.5-.8.1-2.8l.1-1-.3.3c-.5.5-1.1.6-1.9.3-.4 0-1-.5-1.1-.7-.2-.3 0-.4.3-.2.1.2.6.5 1 .7l.5.1.7-.2.6-.6.1-.3c.3-.4.2-1.1-.1-1.5-.3-.4-.3-.4-.2-.6v-.3c0-.3 0-.4.3-.4.2 0 .3 0 .3.4v1.3l.1 1a6.4 6.4 0 00.3 1.6c0 .5.2.8.3 1l.5 1.2h-.3v1.1a9.3 9.3 0 01-.1 2.3l-.1.8v1.3c-.1 1.2-.2 1.5-.4 2-.2.2-.4.8-.4 1.2l-.1.7-.1 1c0 .4 0 .5.1.4.2 0 .5-1 .5-1.7l.1-.4c.2-.1.2 0 .2.4v.8l.2.8-.1.8-.1.7.5-1v-.7c.1-.5.2-.9.4-.9v.4h.2l.1-.2h0c.2.2.3.2.3.1v-.9a322.6 322.6 0 01-.3-2c.2-.1.2-.2.3-.8l.3-1.4c.4-1.3.4-1.5.5-2.4 0-1.3 0-2.4-.3-3.8-.2-.8-.3-1.6-.3-3.2a11 11 0 00-.3-2.7 3 3 0 00-.5-1c-.3-.5-.5-.7-.9-.9l-.4-.2h-.8c-.6.3-1 .3-1.7.4-.8 0-.9 0-.8-.2l.8-.1a4.8 4.8 0 001.8-.4l-.4-.4-.8-.4c-.3-.1-.5-.2-.7-.5-.3-.3-.4-.5-.5-1 0-.4-.1-.6-.2-.7l-.3.2c-.6.5-1.4.8-2 .8h-.2v.4l-.3 1.1-.4.2a6 6 0 01-.5.5c-.2 0-.4.2-.4.3h1l1.1.1c0 .2-.2.2-1.2.2h-1l-.1-.1c-.1-.1-.3-.2-.4 0l-.4.1c-1 .4-1.4.8-1.6 1.8l-.1 2.4a9.4 9.4 0 01-.7 4.4c-.3.6-.4 1.8-.3 6.4l-.1 2-.5 1.3c-.2.2-.1.4.2.9l.3.6c0 .2.2.4.4.6l.4.3-.3-.6c-.3-.3-.4-.4-.5-1l-.1-.5c-.2-.3 0-.5.2-.3l.2 1 .2.3v-2.4l.4-2.1.1-2 .2-1.3c0-.4.4-1.1.7-1.6l.3-.6.2-.7.4-2-.1-.6a4 4 0 01-.6-1 3 3 0 01.3-1.8v-.6c0-.3 0-.4.2-.4l.2.5-.1.6c-.3.5-.4 1-.3 1.4 0 .3.2.7.4 1 .2.2.4.3 1 .3.2 0 .4 0 .6-.2l.7-.4c.3-.2.4-.3.4-.1 0 0 0 .3-.4.5a2 2 0 01-1.2.5h-.4v.8l-.1 1a4 4 0 01-1 1.8 6 6 0 00-.5.7c-.5.7-.5 1-.6 3.4a6.5 6.5 0 01-.2 1.4l-.2 1c-.2.7-.2 1.4-.1 2a95.8 95.8 0 01.5 2.5c0 .3 0 .4.6 2.2l1.1 2.7c.4.7.4.9.2.9v.2c0 .3 0 .7.3 1l.3.4c.3.2.3.4 0 .3-.2 0-.2 0-.1.2 0 .3-.2.3-.4-.1l-.2-.2a205.2 205.2 0 01.5 4.2 59.2 59.2 0 001 4.2v2.2h-.2c-.1-.1-.2 0-.4.3-.3.5-.6.8-1 1l-.4.4h.1l.4.3-.4.7c-.2.3-.2.4 0 0l.6-.5-.2.6-.1.2.4-.3c.1-.2.2-.2.3-.2.1.1-.2.5-.5.7l-.4.4c.1.2.4.1 1-.2l.4-.2c.2 0 .4-.2.6-.4l.4-1.1.2-.6.5-.5c.1 0 .2.1.1.3 0 0 0 0 0 0 0 .1.4 0 .7-.2.4-.2.4-.4.1-1.3-.2-.4-.3-.6-.3-.3l-.1.8v.3l-.1.2h-.2v-.6-1.2-.8c.2 0 .2-.1.3-.9a70.5 70.5 0 00-.1-8l-.1.4c0 .5 0 .6-.2.6-.1 0-.2-.2-.2-.6 0-.3 0-.5.2-.7l.3-.9c.2-.7.2-1.2 0-2.6v-2c.2-1.6.2-2.9.2-3.4v-.6l-.5-.4a63.1 63.1 0 01-2.2-2.8c-.6-.7-.7-.7-.6-.8 0-.1.1-.1.2 0a12.6 12.6 0 012.1 2.6l1 1v-.3c.2-.5 1-1.4 1.2-1.4.2 0 .1.1-.2.5-.5.6-.6.8-.6 1.3v.6l.3.7a9.3 9.3 0 00.6 1.6l.3.6a17.1 17.1 0 011.4 4.2 10.8 10.8 0 001.6 3.6l.5 1.1c0 .2-.1.2-.2.1-.2-.2-.2 0-.2.5 0 .9.3 1.7 1 2.8l.5.8.3.7a37.3 37.3 0 012.3 5.3c0 .1-.2 0-.3-.2-.1-.3-.1-.3-.2-.2l-.1.4.1.4.6.4c.1 0 .2-.1 0-.3 0-.3.1-.4.3-.1l.4.8c0 .4.5 1.2.7 1.4l.4.2.4.3c.5.5.9.6 1.2.3zm-5.1-14.3v-.3c.1-.3.2-.4.3-.3v.3c-.1.3-.2.4-.3.3zm-1.2-.3c-.4-.4-.6-1-.4-1.2.1-.1.2 0 .2.2 0 .3.2.6.4.9.3.2.3.3.1.3 0 0-.2 0-.3-.2zm-8.3-.2v-.2h.2c.2 0 .2-.2.2-.8v-.5c.2-.2.3 0 .3.5v.7c-.2.3-.5.4-.7.3zm3.8-13.2s0-.2.2-.2l.1.1c0 .2-.2.3-.3.1zm1-2.2l.1-.3.2-.4c0-.2.1-.3.2-.2 0 0 .1 0 0 .2l-.2.7c0 .1-.2.1-.2 0zm-6-.4l-.4-1 .1-.1c.1 0 .2 0 .3.3l.2.5c.3.4 0 .5-.2.3zm2.5-1.4c-.2-.2-.2-.3 0-.4 0-.1.2-.1.4 0 .2 0 .2.3 0 .4-.1.1-.2.1-.4 0zm3.7-2.8v-.4c0-.4.3-1 .5-1 .1 0 .1.2 0 .4l-.2.5c0 .5-.1.5-.3.5zm-6.2-3.8l-.1-.1.1-.2.1-.2c0-.2.1-.2.3-.2l.2.3-.1.3c-.2.2-.3.2-.5 0zm6.7-.1v-.1l.1-.6c.2-.3.4-.2.4.2 0 .2 0 .4-.2.5h-.3zm-3.4-5.4v-.2h.2l.3-.1c.3-.2.5-.2.6 0l-.2.1s-.2 0-.3.2h-.6zm.2-.6s-.2-.2-.1-.3h.2c.2 0 .3-.2.5-1 .2-.5.3-.7.5-.7v.5l-.3.6c-.1.4-.3.8-.5.9h-.2s0 0 0 0zm-.6-.9l-.2-.5c-.2-.4-.2-.5-.1-.6h.1l.3.8c.1.3.1.3 0 .4h-.1zm12.7 44.4s0 0 0 0 0 0 0 0c0 .1 0 .1 0 0zm.3-.4h-.1v.1s0 0 0 0zm-16-1h-.3c-.2.3 0 .4 0 .2l.2-.2zm9.3-20.5l.2-.6.2-.5c0-.3 0-.4-.1-.1l-.4 1v.2c-.1.4 0 .3.1 0zm.6-.6s0 0 0 0 0 0 0 0v.1s0 0 0 0zm.5-.8v-.3.3zm-.3-.3v-.2l-.1.3c0 .3 0 .3 0 0zm-1.4-10.4a6.5 6.5 0 00-.4-2.1l-.3.7a5 5 0 00-.3 1l.2.7a9.7 9.7 0 00.6 1l.1.3.2.3v-.5-1.4zm-8.6-.1c.2-.4.3-.9.3-1.3s0-.7-.1-.6a18.3 18.3 0 00-.5 2.2c0 .2.2 0 .3-.3zm1.4-10c.5-.4.7-.6.7-1v-.4-.5l-.3-.6c-.6-.8-.9-1.6-.8-2v-.5l.2-1.5.5-.5c.4-.3.6-.6.6-1 .1-.4 0-.4-.1-.3l-.2.1-.2.2c-.3.1-.4.3-.7.8-.3.4-.3.5-.4 1.3l-.2 1.1c0 .5 0 .7.3 1.5.2.7.3 1.1.3 2l-.1 1c-.2.4-.2.6 0 .6l.4-.3zm6.4-.8l-.2-.7v-1.6a8 8 0 00-.2-2.6 7 7 0 00-1.1-2.1c-.4-.6-.8-1-1.2-1.2-.5-.4-1.6-.2-2 .4a3 3 0 00-.5.8l.4.8.9.3c.4 0 .7.3.8.8.2.4.3.6.7.8.3.2.6.5.7.8v1.4c0 1.2 0 1.6.2 1.9l.4.3.8.4.4.2v-.7zm-2-1.5v-1c-.2 0-.3 0-.3.5l.1 1.3.2.2v-1zm-2.6.3c.4 0 .8-.3 1.3-.6.3-.3.4-.4.5-.9v-.3c-.3 0-.3-.2 0-.5.2-.4.2-.5 0-.8-.2 0-.4-.3-.4-.5-.4-.8-.4-.8-1-.9-.4 0-.7-.2-1-.5l-.2-.3-.4.4c-.5.3-.6.5-.7 1 0 .3 0 .4.3.4l.5.2-.1.2c-.1 0-.1 0 0 0h.4v1l-.2-.2c0-.2-.1-.2-.4-.2l-.3-.1-.1-.1c-.2.2-.2.8 0 1.2l1 1.5c.2.1.4.1.8 0zm-.7-.5c-.2-.2-.1-.2.2-.2.4 0 .5 0 .3.2h-.5zm-.5-.4l-.1-.1c-.1-.2.8-.4 1-.3h.3l.4.2-.2.2h-1.4zm.2-.7c-.2 0-.3-.1-.3-.2 0-.2.1-.2.2 0h.5l.3-.1h.1c0-.3.1-.4.2-.3v.5h-.3l-.5.1a1 1 0 01-.3 0zm.9-1v-.2c0-.1 0-.2.2-.2h.6c.4 0 .4.2 0 .3-.4.1-.8.2-.8 0zm-.3-.7l.3-.2c.5-.1 1 0 1 .1h-.3c-.3 0-.6 0-1 .2 0 0 0 0 0 0zm2.9 1.4v-.2c0-.1 0-.1-.1 0-.2.2-.2.4 0 .4l.1-.2zm-4-1.2h.2l-.1-.1h-.5.5z"/>
    </g>
    <text x="187.8" y="214" fill="#fff" font-family="Arial" font-size="12">
        <tspan x="187.8" y="214">Humans</tspan>
    </text>
    <text x="252.6" y="214" fill="#fff" font-family="Arial" font-size="12">
        <tspan x="252.6" y="214">Butterflies</tspan>
    </text>
    <text x="317.5" y="214" fill="#fff" font-family="Arial" font-size="12">
        <tspan x="317.5" y="214">Needle Point</tspan>
    </text>
    <text x="392.7" y="214" fill="#fff" font-family="Arial" font-size="12">
        <tspan x="392.7" y="214">Protozoans</tspan>
    </text>
    <text x="467" y="214" fill="#fff" font-family="Arial" font-size="12">
        <tspan x="467" y="214">Molecules</tspan>
    </text>
    <text x="545" y="214" fill="#fff" font-family="Arial" font-size="12">
        <tspan x="545" y="214">Atoms</tspan>
    </text>
    <text x="597.4" y="214" fill="#fff" font-family="Arial" font-size="12">
        <tspan x="597.4" y="214">Atomic Nuclei</tspan>
    </text>
    <g>
        <path fill="url(#l)" stroke="#000" stroke-miterlimit="2" d="M11 235.5h548.3v25H11z" transform="translate(100)"/>
        <path fill="none" stroke="#FFF" d="M125.3 225v45M215 225v45M320 225v45M425 225v45M485 225v45M550 225v45M620 225v45"/>
        <g fill="#fff" font-family="Arial" font-size="12">
            <text x="27" y="297.3" transform="translate(88.5 -10)">
                <tspan x="27" y="297.3">10</tspan>
            </text>
            <text x="41.4" y="291.4" transform="translate(88.5 -10)">
                <tspan x="41.4" y="291.4" font-size="9">4</tspan>
            </text>
        </g>
        <g fill="#fff" font-family="Arial" font-size="12">
            <text x="46.2" y="297.9" transform="translate(158.5 -10)">
                <tspan x="46.2" y="297.9">10</tspan>
            </text>
            <text x="60.6" y="292" transform="translate(158.5 -10)">
                <tspan x="60.6" y="292" font-size="9">8</tspan>
            </text>
            <text x="28" y="297.3" transform="translate(280 -10)">
                <tspan x="28" y="297.3">10</tspan>
            </text>
            <text x="40.4" y="291.4" transform="translate(280 -10)">
                <tspan x="40.4" y="291.4" font-size="9">12</tspan>
            </text>
            <g>
                <text x="28" y="297.3" transform="translate(385.6 -10)">
                    <tspan x="28" y="297.3">10</tspan>
                </text>
                <text x="40.4" y="291.4" transform="translate(385.6 -10)">
                    <tspan x="40.4" y="291.4" font-size="9">15</tspan>
                </text>
            </g>
        </g>
        <g fill="#fff" font-family="Arial" font-size="12">
            <text x="28" y="297.3" transform="translate(445 -10)">
                <tspan x="28" y="297.3">10</tspan>
            </text>
            <text x="40.4" y="291.4" transform="translate(445 -10)">
                <tspan x="40.4" y="291.4" font-size="9">16</tspan>
            </text>
        </g>
        <g fill="#fff" font-family="Arial" font-size="12">
            <text x="28" y="297.3" transform="translate(510 -10)">
                <tspan x="28" y="297.3">10</tspan>
            </text>
            <text x="40.4" y="291.4" transform="translate(510 -10)">
                <tspan x="40.4" y="291.4" font-size="9">18</tspan>
            </text>
        </g>
        <g fill="#fff" font-family="Arial" font-size="12">
            <text x="28" y="297.3" transform="translate(580.5 -10)">
                <tspan x="28" y="297.3">10</tspan>
            </text>
            <text x="40.4" y="291.4" transform="translate(580.5 -10)">
                <tspan x="40.4" y="291.4" font-size="9">20</tspan>
            </text>
        </g>
    </g>
    <path fill="none" stroke="#FFF" d="M268.3 312.2v40M343.3 311.7v40M418.3 311.7v40M541.3 312.6v39.6"/>
    <text fill="#fff" style="line-height:125%;text-align:center" x="268.5" y="363.5" font-family="Arial" font-size="12" text-anchor="middle">
        <tspan x="268.5" y="363.5">1 K</tspan>
    </text>
    <text fill="#fff" style="line-height:125%;text-align:center" x="342.5" y="364" font-family="Arial" font-size="12" text-anchor="middle">
        <tspan x="342.5" y="364">100 K</tspan>
    </text>
    <text fill="#fff" style="line-height:125%;text-align:center" x="417.5" y="363.5" font-family="Arial" font-size="12" text-anchor="middle">
        <tspan x="417.5" y="363.5">10,000 K</tspan>
    </text>
    <text fill="#fff" style="line-height:125%;text-align:center" x="541" y="363.5" font-family="Arial" font-size="12" text-anchor="middle">
        <tspan x="541" y="363.5">10,000,000 K</tspan>
    </text>
    <path fill="#fff" d="M535 21.8v-8.6h1.2l4.5 6.7v-6.7h1v8.6h-1L536 15v6.8z" font-family="Arial" font-size="12"/>
    <text fill="#fff" style="text-align:end" x="102.9" y="15" font-family="Arial" font-size="12" text-anchor="end">
        <tspan x="102.9" y="15">Penetrates Earth&apos;s</tspan><tspan x="102.9" y="30">Atmosphere?</tspan>
    </text>
    <g fill="#fff" font-family="Arial" font-size="12">
        <text x="125.5" y="46.5" style="line-height:125%;text-align:start" font-weight="bold" transform="translate(0 62.5)">
            <tspan x="125.5" y="46.5">Radio</tspan>
        </text>
        <text x="222.7" y="46.5" style="line-height:125%;text-align:start" font-weight="bold" transform="translate(0 62.5)">
            <tspan x="222.7" y="46.5">Microwave</tspan>
        </text>
        <text x="317.5" y="46.5" style="line-height:125%;text-align:start" font-weight="bold" transform="translate(0 62.5)">
            <tspan x="317.5" y="46.5">Infrared</tspan>
        </text>
        <text x="393" y="46.5" style="line-height:125%;text-align:start" font-weight="bold" transform="translate(0 62.5)">
            <tspan x="393" y="46.5">Visible</tspan>
        </text>
        <text x="456" y="46.5" style="line-height:125%;text-align:start" font-weight="bold" transform="translate(0 62.5)">
            <tspan x="456" y="46.5">Ultraviolet</tspan>
        </text>
        <text x="537" y="46.5" style="line-height:125%;text-align:start" font-weight="bold" transform="translate(0 62.5)">
            <tspan x="537" y="46.5">X-ray</tspan>
        </text>
        <text x="593.9" y="46.5" style="line-height:125%;text-align:start" font-weight="bold" transform="translate(0 62.5)">
            <tspan x="593.9" y="46.5">Gamma ray</tspan>
        </text>
        <text x="28" y="297.3" transform="translate(104.4 -171.2)">
            <tspan x="28" y="297.3">10</tspan>
        </text>
        <text x="40.4" y="291.4" transform="translate(104.4 -171.2)">
            <tspan x="40.4" y="291.4" font-size="9">3</tspan>
        </text>
        <text x="28" y="297.3" transform="translate(211.9 -171.2)">
            <tspan x="28" y="297.3">10</tspan>
        </text>
        <text x="41.4" y="291.4" transform="translate(211.9 -171.2)">
            <tspan x="41.4" y="291.4" font-size="9">−2</tspan>
        </text>
        <text x="28" y="297.3" transform="translate(299.9 -171.2)">
            <tspan x="28" y="297.3">10</tspan>
        </text>
        <text x="41.4" y="291.4" transform="translate(299.9 -171.2)">
            <tspan x="41.4" y="291.4" font-size="9">−5</tspan>
        </text>
        <text x="1" y="297.3" transform="translate(387.4 -171.2)">
            <tspan x="1" y="297.3">0.5×10</tspan>
        </text>
        <text x="40.4" y="291.4" transform="translate(387.4 -171.2)">
            <tspan x="40.4" y="291.4" font-size="9">−6</tspan>
        </text>
        <text x="28" y="297.3" transform="translate(447.4 -171.2)">
            <tspan x="28" y="297.3">10</tspan>
        </text>
        <text x="40.9" y="291.4" transform="translate(447.4 -171.2)">
            <tspan x="40.9" y="291.4" font-size="9">−8</tspan>
        </text>
        <g>
            <text x="28" y="297.3" transform="translate(510.4 -171.2)">
                <tspan x="28" y="297.3">10</tspan>
            </text>
            <text x="40.9" y="291.4" transform="translate(510.4 -171.2)">
                <tspan x="40.9" y="291.4" font-size="9">−10</tspan>
            </text>
        </g>
        <g>
            <text x="28" y="297.3" transform="translate(588.4 -171.2)">
                <tspan x="28" y="297.3">10</tspan>
            </text>
            <text x="40.9" y="291.4" transform="translate(588.4 -171.2)">
                <tspan x="40.9" y="291.4" font-size="9">−12</tspan>
            </text>
        </g>
        <text x="103" y="46.6" style="text-align:end" text-anchor="end" transform="translate(0 62.5)">
            <tspan x="103" y="46.6">Radiation Type</tspan>
        </text>
        <text x="19.9" y="63.5" transform="translate(0 62.5)">
            <tspan x="19.9" y="63.5">Wavelength (m)</tspan>
        </text>
    </g>
    <text fill="#fff" style="text-align:end" x="103" y="157.3" font-family="Arial" font-size="12" text-anchor="end">
        <tspan x="103" y="157.3">Approximate Scale</tspan><tspan x="103" y="172.3">of Wavelength</tspan>
    </text>
    <text fill="#fff" style="text-align:end" x="102.7" y="251.1" font-family="Arial" font-size="12" text-anchor="end">
        <tspan x="102.7" y="251.1">Frequency (Hz)</tspan>
    </text>
    <text fill="#fff" style="text-align:end" x="106" y="308" font-family="Arial" font-size="12" text-anchor="end">
        <tspan x="106" y="308">Temperature of</tspan><tspan x="109.4" y="323">objects at which </tspan><tspan x="106" y="338">this radiation is the</tspan><tspan x="106" y="353">most intense</tspan><tspan x="106" y="368">wavelength emitted</tspan>
    </text>
    <text fill="#fff" style="line-height:125%;text-align:center" x="268.1" y="376.7" font-family="Arial" font-size="12" text-anchor="middle">
        <tspan x="268.1" y="376.7">−272 °C</tspan>
    </text>
    <text fill="#fff" style="line-height:125%;text-align:center" x="342.4" y="376.7" font-family="Arial" font-size="12" text-anchor="middle">
        <tspan x="342.4" y="376.7">−173 °C</tspan>
    </text>
    <text fill="#fff" style="line-height:125%;text-align:center" x="418.5" y="376.7" font-family="Arial" font-size="12" text-anchor="middle">
        <tspan x="418.5" y="376.7">9,727 °C</tspan>
    </text>
    <text fill="#fff" style="line-height:125%;text-align:center" x="538.5" y="376.7" font-family="Arial" font-size="12" text-anchor="middle">
        <tspan x="538.5" y="376.7">~10,000,000 °C</tspan>
    </text>
</svg>
